<?xml version="1.0" encoding="UTF-8" standalone="no"?>
<!-- Created with Inkscape (http://www.inkscape.org/) -->

<svg
   xmlns:dc="http://purl.org/dc/elements/1.1/"
   xmlns:cc="http://creativecommons.org/ns#"
   xmlns:rdf="http://www.w3.org/1999/02/22-rdf-syntax-ns#"
   xmlns:svg="http://www.w3.org/2000/svg"
   xmlns="http://www.w3.org/2000/svg"
   xmlns:sodipodi="http://sodipodi.sourceforge.net/DTD/sodipodi-0.dtd"
   xmlns:inkscape="http://www.inkscape.org/namespaces/inkscape"
   width="210mm"
   height="297mm"
   viewBox="0 0 210 297"
   version="1.1"
   id="svg831"
   inkscape:version="0.92.3 (2405546, 2018-03-11)"
   sodipodi:docname="Icon-Reload.svg">
  <defs
     id="defs825" />
  <sodipodi:namedview
     id="base"
     pagecolor="#ffffff"
     bordercolor="#666666"
     borderopacity="1.0"
     inkscape:pageopacity="0.0"
     inkscape:pageshadow="2"
     inkscape:zoom="1.4"
     inkscape:cx="98.133168"
     inkscape:cy="937.06524"
     inkscape:document-units="mm"
     inkscape:current-layer="layer1"
     showgrid="false"
     inkscape:window-width="1920"
     inkscape:window-height="1017"
     inkscape:window-x="1912"
     inkscape:window-y="-8"
     inkscape:window-maximized="1" />
  <metadata
     id="metadata828">
    <rdf:RDF>
      <cc:Work
         rdf:about="">
        <dc:format>image/svg+xml</dc:format>
        <dc:type
           rdf:resource="http://purl.org/dc/dcmitype/StillImage" />
        <dc:title></dc:title>
      </cc:Work>
    </rdf:RDF>
  </metadata>
  <g
     inkscape:label="Layer 1"
     inkscape:groupmode="layer"
     id="layer1">
    <path
       inkscape:connector-curvature="0"
       id="path7560"
       style="font-style:normal;font-variant:normal;font-weight:normal;font-stretch:normal;font-size:medium;line-height:1.25;font-family:'Wingdings 3';-inkscape-font-specification:'Wingdings 3, ';letter-spacing:0px;word-spacing:0px;fill:#ff0000;fill-opacity:1;stroke:none;stroke-width:0.69189203"
       d="M 16.9054,2.82433 19.74325,0 H 12.66216 V 7.06757 L 15.48649,4.24324 Q 18,6.7027 18,10.01353 18,13.31081 15.64865,15.66217 13.29729,18 10.00001,18 6.67568,18 4.33783,15.66217 1.99999,13.32433 1.99999,10.01353 q 0,-3.18921 2.33784,-5.67568 L 2.91891,2.93243 Q 0,6.04055 0,10.01353 0,14.14864 2.93243,17.08108 5.85135,20 10.00001,20 14.13512,20 17.06756,17.08108 20,14.14864 20,10.01353 20,5.86487 16.9054,2.82433 Z" />
  </g>
</svg>
