<?xml version="1.0" encoding="UTF-8" standalone="no"?>
<!-- Created with Inkscape (http://www.inkscape.org/) -->

<svg
   xmlns:dc="http://purl.org/dc/elements/1.1/"
   xmlns:cc="http://creativecommons.org/ns#"
   xmlns:rdf="http://www.w3.org/1999/02/22-rdf-syntax-ns#"
   xmlns:svg="http://www.w3.org/2000/svg"
   xmlns="http://www.w3.org/2000/svg"
   xmlns:sodipodi="http://sodipodi.sourceforge.net/DTD/sodipodi-0.dtd"
   xmlns:inkscape="http://www.inkscape.org/namespaces/inkscape"
   width="210mm"
   height="297mm"
   viewBox="0 0 210 297"
   version="1.1"
   id="svg8"
   inkscape:version="0.92.3 (2405546, 2018-03-11)"
   sodipodi:docname="Icon-Proxy.svg">
  <defs
     id="defs2" />
  <sodipodi:namedview
     id="base"
     pagecolor="#ffffff"
     bordercolor="#666666"
     borderopacity="1.0"
     inkscape:pageopacity="0.0"
     inkscape:pageshadow="2"
     inkscape:zoom="11.2"
     inkscape:cx="122.65356"
     inkscape:cy="1063.5524"
     inkscape:document-units="mm"
     inkscape:current-layer="layer1"
     showgrid="false"
     inkscape:window-width="3840"
     inkscape:window-height="2097"
     inkscape:window-x="-8"
     inkscape:window-y="-8"
     inkscape:window-maximized="1" />
  <metadata
     id="metadata5">
    <rdf:RDF>
      <cc:Work
         rdf:about="">
        <dc:format>image/svg+xml</dc:format>
        <dc:type
           rdf:resource="http://purl.org/dc/dcmitype/StillImage" />
        <dc:title></dc:title>
      </cc:Work>
    </rdf:RDF>
  </metadata>
  <g
     inkscape:label="Layer 1"
     inkscape:groupmode="layer"
     id="layer1">
    <path
       inkscape:connector-curvature="0"
       style="fill:#2d7ac7;fill-opacity:1;stroke:none;stroke-width:0.27356175;stroke-dasharray:none;stroke-dashoffset:1"
       d="M 5.3650472,0 V 3.8426596 H 14.634765 V 0 Z M 9.4547199,4.9407836 V 7.6532795 H 10.545093 V 4.9407836 Z M 1.2753743,12.979053 v 2.786393 H 2.365747 v -2.786393 z m 8.1793456,0 v 2.786393 h 1.0903731 v -2.786393 z m 8.1788291,0 v 2.786393 h 1.090889 V 12.979053 Z M 1.8210775,16.705957 a 1.6358326,1.6469272 0 0 0 -1.63607587,1.646928 1.6358326,1.6469272 0 0 0 1.63607587,1.646928 1.6358326,1.6469272 0 0 0 1.635559,-1.646928 1.6358326,1.6469272 0 0 0 -1.635559,-1.646928 z m 8.1788288,0 a 1.6358326,1.6469272 0 0 0 -1.6355591,1.646928 1.6358326,1.6469272 0 0 0 1.6355591,1.646928 1.6358326,1.6469272 0 0 0 1.6360757,-1.646928 1.6358326,1.6469272 0 0 0 -1.6360757,-1.646928 z m 8.1793457,0 a 1.6358326,1.6469272 0 0 0 -1.636076,1.646928 1.6358326,1.6469272 0 0 0 1.636076,1.646928 1.6358326,1.6469272 0 0 0 1.635559,-1.646928 1.6358326,1.6469272 0 0 0 -1.635559,-1.646928 z"
       id="rect4518" />
    <path
       style="fill:#ffffff;fill-opacity:1;stroke:none;stroke-width:0.27356175;stroke-dasharray:none;stroke-dashoffset:1"
       inkscape:connector-curvature="0"
       d="m 17.81889,10.851957 c -0.299902,0 -0.545276,-0.247038 -0.545276,-0.548976 0,-0.301936 0.245374,-0.5489751 0.545276,-0.5489751 0.299903,0 0.545278,0.2470391 0.545278,0.5489751 0,0.301938 -0.245375,0.548976 -0.545278,0.548976 z m -2.726387,0 c -0.299903,0 -0.545278,-0.247038 -0.545278,-0.548976 0,-0.301936 0.245375,-0.5489751 0.545278,-0.5489751 0.299903,0 0.545278,0.2470391 0.545278,0.5489751 0,0.301938 -0.245375,0.548976 -0.545278,0.548976 z m -2.726388,0 c -0.299903,0 -0.545277,-0.247038 -0.545277,-0.548976 0,-0.301936 0.245374,-0.5489751 0.545277,-0.5489751 0.299902,0 0.545277,0.2470391 0.545277,0.5489751 0,0.301938 -0.245375,0.548976 -0.545277,0.548976 z m -2.726387,0 c -0.299903,0 -0.545278,-0.247038 -0.545278,-0.548976 0,-0.301936 0.245375,-0.5489751 0.545278,-0.5489751 0.299902,0 0.545277,0.2470391 0.545277,0.5489751 0,0.301938 -0.245375,0.548976 -0.545277,0.548976 z m -6.91334,0.548976 c -0.599805,0 -1.090555,-0.494078 -1.090555,-1.097952 0,-0.6038723 0.49075,-1.0979512 1.090555,-1.0979512 0.599805,0 1.090555,0.4940789 1.090555,1.0979512 0,0.603874 -0.49075,1.097952 -1.090555,1.097952 z M 18.909446,7.5581033 H 1.090555 C 0.49075,7.5581033 0,8.0521813 0,8.6560536 v 3.2938544 c 0,0.603875 0.49075,1.097953 1.090555,1.097953 h 17.818891 c 0.599805,0 1.090555,-0.494078 1.090555,-1.097953 V 8.6560536 c 0,-0.6038723 -0.49075,-1.0979503 -1.090555,-1.0979503 z"
       id="path4552"
       sodipodi:nodetypes="sssssssssssssssssssssssssccssssssc" />
  </g>
</svg>
