<?xml version="1.0" encoding="UTF-8" standalone="no"?>
<!-- Created with Inkscape (http://www.inkscape.org/) -->

<svg
   xmlns:dc="http://purl.org/dc/elements/1.1/"
   xmlns:cc="http://creativecommons.org/ns#"
   xmlns:rdf="http://www.w3.org/1999/02/22-rdf-syntax-ns#"
   xmlns:svg="http://www.w3.org/2000/svg"
   xmlns="http://www.w3.org/2000/svg"
   xmlns:sodipodi="http://sodipodi.sourceforge.net/DTD/sodipodi-0.dtd"
   xmlns:inkscape="http://www.inkscape.org/namespaces/inkscape"
   width="210mm"
   height="297mm"
   viewBox="0 0 210 297"
   version="1.1"
   id="svg4668"
   inkscape:version="0.92.3 (2405546, 2018-03-11)"
   sodipodi:docname="Icon-Proxy-Port.svg">
  <defs
     id="defs4662" />
  <sodipodi:namedview
     id="base"
     pagecolor="#ffffff"
     bordercolor="#666666"
     borderopacity="1.0"
     inkscape:pageopacity="0.0"
     inkscape:pageshadow="2"
     inkscape:zoom="11.2"
     inkscape:cx="18.83474"
     inkscape:cy="1068.1657"
     inkscape:document-units="mm"
     inkscape:current-layer="layer1"
     showgrid="false"
     inkscape:window-width="3840"
     inkscape:window-height="2097"
     inkscape:window-x="-8"
     inkscape:window-y="-8"
     inkscape:window-maximized="1" />
  <metadata
     id="metadata4665">
    <rdf:RDF>
      <cc:Work
         rdf:about="">
        <dc:format>image/svg+xml</dc:format>
        <dc:type
           rdf:resource="http://purl.org/dc/dcmitype/StillImage" />
        <dc:title />
      </cc:Work>
    </rdf:RDF>
  </metadata>
  <g
     inkscape:label="Layer 1"
     inkscape:groupmode="layer"
     id="layer1">
    <path
       sodipodi:type="inkscape:offset"
       inkscape:radius="2.5684009"
       inkscape:original="M 15.142578 2.0859375 A 3.2586549 3.2586549 0 0 0 11.884766 5.3457031 A 3.2586549 3.2586549 0 0 0 15.142578 8.6035156 A 3.2586549 3.2586549 0 0 0 18.402344 5.3457031 A 3.2586549 3.2586549 0 0 0 15.142578 2.0859375 z M 15.142578 11.396484 A 3.2586549 3.2586549 0 0 0 11.884766 14.654297 A 3.2586549 3.2586549 0 0 0 15.142578 17.914062 A 3.2586549 3.2586549 0 0 0 18.402344 14.654297 A 3.2586549 3.2586549 0 0 0 15.142578 11.396484 z "
       style="opacity:1;fill:#ffffff;fill-opacity:1;stroke:none;stroke-width:2.06788588;stroke-linecap:round;stroke-linejoin:round;stroke-miterlimit:4;stroke-dasharray:2.0678859, 12.40731538;stroke-dashoffset:0;stroke-opacity:1;paint-order:normal"
       id="path5073"
       d="M 15.142578,-0.48242188 C 12.091379,-0.48163281 9.3153662,2.2945042 9.3164062,5.3457031 9.3168919,7.2247558 10.427298,8.9141913 11.949219,10 c -1.521921,1.085809 -2.6323273,2.775244 -2.6328128,4.654297 -0.00104,3.051198 2.7749738,5.827336 5.8261718,5.828125 3.052363,0.001 5.829165,-2.775762 5.828125,-5.828125 C 20.970218,12.775443 19.859563,11.085823 18.337891,10 c 1.521672,-1.0858229 2.632327,-2.7754433 2.632812,-4.6542969 0.001,-3.0523636 -2.775761,-5.82916591 -5.828125,-5.82812498 z" />
    <path
       inkscape:connector-curvature="0"
       style="fill:#2d7ac7;fill-opacity:1;stroke:none;stroke-width:0.27356175;stroke-dasharray:none;stroke-dashoffset:1"
       d="M 5.1800455,0 V 3.8426596 H 9.5575561 C 10.062125,2.1570078 11.369855,0.70942186 12.983704,0 Z M 9.2697182,4.9407836 V 7.6532795 H 9.9063719 C 9.543408,6.9426949 9.3324578,6.1624037 9.3322467,5.3459268 9.3322007,5.2102572 9.3395889,5.0751432 9.3503336,4.9407836 Z M 1.0903727,12.979053 v 2.786393 h 1.0903727 v -2.786393 z m 8.1793455,0 v 2.786393 h 0.184485 c -0.079785,-0.363004 -0.1220846,-0.734964 -0.1219565,-1.111043 1.5e-4,-0.580666 0.107166,-1.143234 0.2992067,-1.67535 z M 1.6360758,16.705957 A 1.6358326,1.6469272 0 0 0 0,18.352885 a 1.6358326,1.6469272 0 0 0 1.6360758,1.646928 1.6358326,1.6469272 0 0 0 1.635559,-1.646928 1.6358326,1.6469272 0 0 0 -1.635559,-1.646928 z m 8.1183676,0.0031 a 1.6358326,1.6469272 0 0 0 -1.5750979,1.643827 1.6358326,1.6469272 0 0 0 1.6355591,1.646928 1.6358326,1.6469272 0 0 0 1.5311724,-1.069186 c -0.684954,-0.61612 -1.240283,-1.377502 -1.5916336,-2.221569 z m 9.8686476,1.510502 c -0.580349,0.71189 -1.315308,1.300307 -2.13837,1.69602 a 1.6358326,1.6469272 0 0 0 0.509529,0.08423 1.6358326,1.6469272 0 0 0 1.635559,-1.646928 1.6358326,1.6469272 0 0 0 -0.0067,-0.133325 z"
       id="rect4518" />
    <path
       inkscape:connector-curvature="0"
       style="fill:#2d7ac7;fill-opacity:1;stroke:none;stroke-width:0.27356175;stroke-dasharray:none;stroke-dashoffset:1"
       d="M 1.0903727,7.5581948 C 0.49056274,7.5581948 0,8.0519322 0,8.6558024 v 3.2938556 c 0,0.60387 0.49056274,1.098124 1.0903727,1.098124 h 8.5183429 c 0.4073894,-1.179323 1.2345604,-2.2119 2.2608444,-2.967777 0.01766,-0.03955 0.04062,-0.0761 0.06666,-0.1100709 C 11.060318,9.3404493 10.324815,8.5097532 9.8608966,7.5581948 Z M 19.955371,8.3565957 c -0.443073,0.6333262 -1.007142,1.1918907 -1.644861,1.6433106 0.658687,0.4662627 1.240067,1.0465807 1.689303,1.7058387 V 8.6558024 c 0,-0.104121 -0.01709,-0.2038885 -0.04444,-0.2992067 z M 2.7264487,9.2051229 c 0.5997995,0 1.0903725,0.4937376 1.0903725,1.0976071 0,0.60388 -0.490573,1.098124 -1.0903725,1.098124 -0.5998104,0 -1.0903729,-0.494244 -1.0903729,-1.098124 0,-0.6038695 0.4905625,-1.0976071 1.0903729,-1.0976071 z m 6.9132729,0.5488035 c 0.2998999,0 0.5451864,0.2468736 0.5451864,0.5488036 0,0.30194 -0.2452865,0.549321 -0.5451864,0.549321 -0.2999002,0 -0.5451864,-0.247381 -0.5451864,-0.549321 0,-0.30193 0.2452862,-0.5488036 0.5451864,-0.5488036 z"
       id="path4552" />
    <path
       inkscape:connector-curvature="0"
       style="opacity:1;fill:#ffffff;fill-opacity:1;stroke:none;stroke-width:2.06788588;stroke-linecap:round;stroke-linejoin:round;stroke-miterlimit:4;stroke-dasharray:2.0678859, 12.40731538;stroke-dashoffset:0;stroke-opacity:1;paint-order:normal"
       d="m 15.142745,2.0861775 a 3.2586549,3.2586549 0 0 0 -3.258716,3.2587159 3.2586549,3.2586549 0 0 0 3.258716,3.2581989 3.2586549,3.2586549 0 0 0 3.258716,-3.2581989 3.2586549,3.2586549 0 0 0 -3.258716,-3.2587159 z m 0,9.3105425 a 3.2586549,3.2586549 0 0 0 -3.258716,3.258199 3.2586549,3.2586549 0 0 0 3.258716,3.258716 3.2586549,3.2586549 0 0 0 3.258716,-3.258716 3.2586549,3.2586549 0 0 0 -3.258716,-3.258199 z"
       id="path5229" />
  </g>
</svg>
