<?xml version="1.0" encoding="UTF-8" standalone="no"?>
<!-- Created with Inkscape (http://www.inkscape.org/) -->

<svg
   xmlns:dc="http://purl.org/dc/elements/1.1/"
   xmlns:cc="http://creativecommons.org/ns#"
   xmlns:rdf="http://www.w3.org/1999/02/22-rdf-syntax-ns#"
   xmlns:svg="http://www.w3.org/2000/svg"
   xmlns="http://www.w3.org/2000/svg"
   xmlns:sodipodi="http://sodipodi.sourceforge.net/DTD/sodipodi-0.dtd"
   xmlns:inkscape="http://www.inkscape.org/namespaces/inkscape"
   width="210mm"
   height="297mm"
   viewBox="0 0 210 297"
   version="1.1"
   id="svg6683"
   inkscape:version="0.92.3 (2405546, 2018-03-11)"
   sodipodi:docname="icon-Linux-PDF.svg">
  <defs
     id="defs6677" />
  <sodipodi:namedview
     id="base"
     pagecolor="#ffffff"
     bordercolor="#666666"
     borderopacity="1.0"
     inkscape:pageopacity="0.0"
     inkscape:pageshadow="2"
     inkscape:zoom="3.959798"
     inkscape:cx="88.775955"
     inkscape:cy="1057.364"
     inkscape:document-units="mm"
     inkscape:current-layer="layer1"
     showgrid="false"
     inkscape:window-width="1920"
     inkscape:window-height="1017"
     inkscape:window-x="1912"
     inkscape:window-y="-8"
     inkscape:window-maximized="1" />
  <metadata
     id="metadata6680">
    <rdf:RDF>
      <cc:Work
         rdf:about="">
        <dc:format>image/svg+xml</dc:format>
        <dc:type
           rdf:resource="http://purl.org/dc/dcmitype/StillImage" />
        <dc:title></dc:title>
      </cc:Work>
    </rdf:RDF>
  </metadata>
  <g
     inkscape:label="Layer 1"
     inkscape:groupmode="layer"
     id="layer1">
    <path
       inkscape:connector-curvature="0"
       id="path7240"
       style="fill:#2d7ac7;fill-opacity:1;fill-rule:nonzero;stroke:none;stroke-width:0.35278967"
       d="m 10.219435,-6.7544093e-4 c -0.7401524,0 -1.500767,0.23143003093 -2.0863978,0.63537421093 C 6.9353162,1.4616378 7.0937188,3.2640403 7.1984973,4.4575277 c 0.013759,0.1626361 0.027518,0.3168052 0.035985,0.4491013 0.068794,1.1673811 0.00529,1.7833518 -0.077261,1.9706832 C 7.1035969,7.000083 6.8390046,7.347228 6.5592424,7.7165988 6.2696021,8.0969061 5.9418605,8.529779 5.6730347,8.9319593 5.3519961,9.4156339 5.0930485,10.157198 4.842215,10.872302 4.6587644,11.397606 4.486603,11.892217 4.3183224,12.18715 3.9986949,12.756199 4.077367,13.286795 4.1447498,13.531984 c -0.1213596,0.08432 -0.2963433,0.249422 -0.4438094,0.560935 -0.1792171,0.380308 -0.540121,0.585631 -1.2926214,0.730628 -0.3457338,0.0702 -0.5828085,0.214849 -0.7084016,0.431109 -0.1802756,0.314336 -0.082553,0.708402 0.00847,0.978638 0.1337072,0.396889 0.049391,0.647722 -0.1005451,1.103879 -0.034573,0.104426 -0.074439,0.224375 -0.1146566,0.35526 -0.063149,0.206734 -0.039865,0.395477 0.067736,0.559524 0.2836429,0.434284 1.1134042,0.587042 1.9664497,0.688998 0.5083698,0.05927 1.0664831,0.263534 1.6055457,0.460391 0.5291846,0.192976 1.0749502,0.392655 1.5709725,0.453335 0.07585,0.0099 0.1502884,0.01517 0.2233158,0.01517 0.7496781,0 1.088709,-0.497433 1.1959571,-0.701345 0.2688257,-0.05504 1.1977209,-0.23143 2.1555449,-0.255067 0.955002,-0.02752 1.879664,0.161225 2.142845,0.219082 0.08114,0.158755 0.299166,0.518248 0.6449,0.704168 0.190153,0.103368 0.454745,0.162636 0.726394,0.162636 0.289287,0 0.840345,-0.06738 1.27604,-0.526362 0.435342,-0.461449 1.521228,-1.048491 2.315005,-1.478541 0.176395,-0.09666 0.343264,-0.186273 0.487908,-0.267415 0.44522,-0.2466 0.688998,-0.59939 0.668536,-0.967349 -0.0194,-0.305869 -0.221904,-0.574695 -0.529184,-0.701346 h -0.0014 c -0.585631,-0.239897 -0.836465,-0.558113 -0.813181,-1.035085 0.0247,-0.55388 -0.289287,-0.962058 -0.439576,-1.121871 0.09102,-0.345734 0.354201,-1.539222 0,-2.576776 C 16.376673,10.215055 15.214938,8.5184898 14.015806,6.8526169 13.525428,6.1674993 13.501791,5.4234659 13.474273,4.5623063 13.449578,3.7406591 13.420649,2.8092944 12.96167,1.7727983 12.464237,0.64563525 11.463725,-6.7544093e-4 10.219435,-6.7544093e-4 Z M 10.79413,2.890436 c 0.43252,0 0.783899,0.4466317 0.783899,0.9966308 0,0.2300189 -0.06315,0.4476901 -0.172162,0.6212627 0.02893,-0.092078 0.0441,-0.192976 0.0441,-0.2974017 0,-0.4603906 -0.29211,-0.820236 -0.664303,-0.820236 -0.363726,0 -0.660069,0.3679596 -0.660069,0.820236 0,0.031398 0.0014,0.061738 0.0042,0.092078 -0.0194,-0.0067 -0.0374,-0.013759 -0.05645,-0.020462 -0.04128,-0.1270043 -0.0635,-0.2593005 -0.0635,-0.3944189 0,-0.5510575 0.351378,-0.9976892 0.784251,-0.9976892 z M 8.3616449,3.0752978 c 0.3182163,0 0.5856309,0.4286394 0.5856309,0.9355982 0,0.063502 -0.00388,0.1266515 -0.013759,0.1957983 -0.019051,0.00811 -0.038454,0.016581 -0.056446,0.026106 -0.00282,-0.042688 -0.0067,-0.083964 -0.013759,-0.1280626 C 8.795929,3.7131415 8.5352174,3.4294986 8.2459299,3.4294986 c -0.021873,0 -0.042688,0.00141 -0.067383,0.00388 C 8.0060328,3.4623076 7.8723255,3.592134 7.7978869,3.776643 7.8627999,3.3730516 8.0903495,3.0752971 8.3616449,3.0752978 Z m 1.0820059,1.8119278 c 0.00811,0 0.01517,0 0.021873,0.00141 0.1640472,0.028929 0.5704612,0.1915648 0.8668042,0.3101022 0.137941,0.053977 0.255067,0.100545 0.339031,0.1308849 0.26177,0.09102 0.398299,0.2053236 0.414881,0.2494223 -0.0056,0.02787 -0.0194,0.040218 -0.165459,0.1160678 -0.07444,0.038454 -0.166869,0.086786 -0.281173,0.1569915 l -0.07726,0.04551 C 10.252598,6.0849465 9.5290259,6.5245225 9.3318165,6.5506289 9.1981092,6.5686212 9.1155564,6.5178195 8.9296363,6.3908152 8.8880071,6.3618864 8.8439084,6.3315465 8.795929,6.3012066 8.4607788,6.0821242 8.2459299,5.8397577 8.2212346,5.7445045 8.3298938,5.6605406 8.6015419,5.4495723 8.7391298,5.324332 9.0203032,5.062562 9.3042989,4.8872256 9.4447092,4.8872256 Z m 2.1110942,1.3465982 c 0.292109,0.4201725 1.988675,4.1742072 2.162248,5.3814542 0.136528,0.95359 -0.0085,1.741722 -0.0815,2.050413 -0.05786,-0.0081 -0.128062,-0.01376 -0.202501,-0.01376 -0.471328,0 -0.596567,0.25789 -0.62973,0.412059 -0.08255,0.39971 -0.09243,1.679984 -0.09384,1.966449 -0.170749,0.218024 -1.034731,1.240409 -2.27514,1.42386 -0.5055474,0.07444 -0.9768744,0.111481 -1.4026915,0.111481 -0.364079,0 -0.595509,-0.02893 -0.6918206,-0.04269 L 7.7153342,16.809047 C 7.9619342,16.68804 8.2074758,16.431562 8.1425625,15.970113 8.0875273,15.578517 7.5844492,15.191507 7.0030518,14.742052 6.5260802,14.375504 5.9873703,13.959212 5.8384931,13.606423 5.5312133,12.880381 5.7721686,11.60293 6.1955162,10.943919 6.4033094,10.614766 6.5744124,10.115921 6.7395179,9.6322468 6.9173239,9.1097653 7.1021857,8.5710554 7.3075093,8.3353919 7.6327814,7.9660211 7.9344166,7.2480941 7.9883934,6.682925 c 0.3044575,0.2921099 0.7786068,0.6614807 1.2153605,0.6614807 0.067383,0 0.1337072,-0.00811 0.1957982,-0.026106 C 9.698365,7.231513 10.139352,6.9778572 10.565169,6.7312572 10.931718,6.5188778 11.383994,6.2585191 11.554745,6.2338238 Z M 4.664409,14.244619 c 0.1859202,0 0.5746944,0.388421 0.7990687,0.73733 0.056446,0.0882 0.1612248,0.264593 0.2839957,0.468505 0.3637261,0.610326 0.8625707,1.444321 1.1232823,1.724083 0.2356635,0.251892 0.6159708,0.73592 0.5221287,1.150447 -0.068794,0.32245 -0.4328729,0.584573 -0.5196592,0.64243 -0.03034,0.0067 -0.068794,0.0095 -0.1143038,0.0095 -0.4988446,0 -1.4870085,-0.41347 -2.0176042,-0.636786 l -0.078319,-0.03281 C 4.3666545,18.183163 3.8829799,18.104491 3.4158864,18.028641 3.0436932,17.968314 2.5353233,17.885409 2.4495954,17.81097 c -0.067383,-0.07691 0.011289,-0.326331 0.081494,-0.546824 0.050802,-0.157344 0.1019563,-0.321391 0.130885,-0.492142 0.039865,-0.274117 -0.00706,-0.496022 -0.04551,-0.675239 -0.031751,-0.1517 -0.057857,-0.271648 -0.03034,-0.387363 0.019404,-0.08538 0.4438095,-0.177806 0.6254961,-0.217671 0.2536558,-0.05504 0.5182481,-0.111482 0.6907622,-0.216261 0.2328412,-0.140763 0.3580816,-0.401121 0.4699159,-0.629729 0.079731,-0.16687 0.1636944,-0.339031 0.2617699,-0.395477 0.0067,-0.0028 0.013759,-0.0056 0.03034,-0.0056 z m 9.044117,0.354201 c 0.0014,0.305869 0.06774,0.916195 0.555644,1.129985 0.146053,0.0635 0.312571,0.0949 0.494611,0.0949 0.489319,0 1.032262,-0.239545 1.254166,-0.461449 0.130885,-0.130885 0.240955,-0.290699 0.318216,-0.417703 0.01658,0.04833 0.02752,0.113245 0.02187,0.195798 -0.02893,0.451924 0.190507,1.051313 0.607857,1.271807 l 0.06068,0.03175 c 0.148877,0.07867 0.544354,0.285407 0.549999,0.384541 0,0 -0.0028,0.01094 -0.02505,0.03175 -0.09913,0.09102 -0.44769,0.268825 -0.783899,0.440987 -0.598331,0.304457 -1.274981,0.650544 -1.579438,0.970171 -0.42723,0.450513 -0.912314,0.753912 -1.204424,0.753912 -0.03599,0 -0.06738,-0.0056 -0.09631,-0.01376 -0.317158,-0.09949 -0.578928,-0.558113 -0.438517,-1.21148 0.147466,-0.668183 0.318569,-1.575205 0.291051,-2.111093 -0.0071,-0.12136 -0.01799,-0.253656 -0.02787,-0.381718 -0.01905,-0.239897 -0.04798,-0.595509 -0.01764,-0.701699 0.0053,-0.0025 0.01235,-0.0039 0.01905,-0.0067 z" />
    <path
       inkscape:connector-curvature="0"
       id="path7242"
       style="fill:#ffffff;fill-opacity:1;fill-rule:nonzero;stroke:none;stroke-width:0.35278967"
       d="m 10.79413,2.890436 c -0.107601,0 -0.210968,0.027518 -0.304811,0.078672 -0.09349,0.049743 -0.178864,0.1227708 -0.249422,0.2134377 -0.141821,0.1806284 -0.228608,0.4300507 -0.228608,0.704521 0,0.1361768 0.02082,0.268473 0.06209,0.3954773 0.01905,0.0067 0.03704,0.013759 0.05645,0.020462 -0.0028,-0.03034 -0.0042,-0.06068 -0.0042,-0.092078 0,-0.2261382 0.07444,-0.4314618 0.192976,-0.5803391 0.119949,-0.1474661 0.285407,-0.2398969 0.467094,-0.2398969 0.186273,0 0.35279,0.089609 0.471327,0.2370746 0.119948,0.1474661 0.192976,0.3527897 0.192976,0.5831614 0,0.1044257 -0.01517,0.2053236 -0.0441,0.2974017 0.109013,-0.1735726 0.170751,-0.3912438 0.170751,-0.6212627 0,-0.2744703 -0.08679,-0.5238926 -0.228609,-0.704521 C 11.277804,3.0918789 11.192429,3.0188514 11.098587,2.9691081 11.004745,2.9179536 10.901378,2.890436 10.79413,2.890436 Z M 8.3616449,3.0752978 c -0.1351185,0 -0.2603588,0.074439 -0.3594927,0.1982678 C 7.9026652,3.3991587 7.829638,3.5741424 7.797887,3.7766437 7.835283,3.6842127 7.887496,3.6058935 7.9524089,3.5466248 8.0159109,3.4887678 8.0928191,3.4485488 8.178547,3.4333793 c 0.024695,-0.00247 0.04551,-0.00388 0.067383,-0.00388 0.1446437,0 0.2825845,0.070205 0.3912437,0.1901537 0.1104232,0.1199484 0.1915648,0.2892875 0.2261382,0.4850858 0.00706,0.044099 0.010936,0.085375 0.013759,0.1280626 0.017992,-0.00953 0.037396,-0.017992 0.056446,-0.026106 0.00988,-0.069147 0.013759,-0.1322961 0.013759,-0.1957983 0,-0.2536558 -0.065972,-0.4879081 -0.1735726,-0.6586583 C 8.7200792,3.2668626 8.6565771,3.1977158 8.5877831,3.1497364 8.5175779,3.1014042 8.4417281,3.0752978 8.3616449,3.0752978 Z m 1.0820059,1.8119278 c -0.1393519,0 -0.4233476,0.1753364 -0.704521,0.4371064 -0.1375879,0.1252403 -0.409236,0.3362086 -0.5178952,0.4201725 0.024695,0.095253 0.2395442,0.3376197 0.5746944,0.5567021 0.047979,0.03034 0.092078,0.06068 0.1337073,0.089609 0.1859201,0.1270043 0.2684729,0.177806 0.4021802,0.1598137 0.1972094,-0.026106 0.9207815,-0.4656824 1.2305305,-0.6530137 l 0.07726,-0.04551 c 0.114304,-0.070205 0.206735,-0.1185376 0.281173,-0.1569917 0.146055,-0.07585 0.159814,-0.088197 0.165459,-0.1160678 -0.01658,-0.044099 -0.153111,-0.1584025 -0.414881,-0.2494223 -0.08396,-0.03034 -0.20109,-0.076908 -0.339031,-0.1308849 C 10.035985,5.0802015 9.629571,4.9175655 9.4655238,4.8886367 c -0.0067,-0.00141 -0.013759,-0.00141 -0.021873,-0.00141 z m 2.1110942,1.3465982 c -0.170751,0.024695 -0.623027,0.285054 -0.990987,0.4974334 -0.424406,0.2466 -0.865393,0.5002558 -1.1642059,0.5870421 -0.062091,0.017992 -0.1284154,0.026106 -0.1957982,0.026106 -0.2190824,0 -0.4466318,-0.092078 -0.6572472,-0.2219047 C 8.3355384,6.9944383 8.1411513,6.82898 7.9883934,6.682925 7.960523,6.9655096 7.8723256,7.2865482 7.7499076,7.5828915 7.6271368,7.8792349 7.4701454,8.1505301 7.3075093,8.3353919 7.2041419,8.4525181 7.1064192,8.6469052 7.0125771,8.8769241 6.9187351,9.1058846 6.8277154,9.3715352 6.7395179,9.6322468 6.5744124,10.115921 6.4033094,10.614766 6.1955162,10.943919 c -0.1061896,0.164047 -0.2000317,0.367959 -0.2772926,0.591275 -0.076908,0.223316 -0.137588,0.468505 -0.1749837,0.714047 -0.037043,0.2466 -0.052213,0.494611 -0.038454,0.727452 0.013759,0.232841 0.056446,0.448043 0.1337073,0.62973 0.074439,0.176394 0.2466,0.367959 0.4589794,0.562346 0.2134377,0.194387 0.4670935,0.390186 0.7055793,0.573283 0.2906987,0.224728 0.561994,0.434285 0.7673176,0.635375 0.2053236,0.202501 0.3446755,0.396888 0.3721931,0.592686 0.033162,0.230019 -0.012348,0.410648 -0.096312,0.546824 -0.084317,0.137941 -0.2067347,0.231783 -0.3309167,0.29211 l 0.6244377,0.712635 c 0.096312,0.01517 0.3277416,0.0441 0.6918206,0.0441 0.4258171,0 0.8971441,-0.03704 1.4026918,-0.111481 0.310102,-0.04551 0.59692,-0.143586 0.855868,-0.268826 0.257536,-0.125593 0.486496,-0.27694 0.683353,-0.430051 0.393008,-0.305868 0.650544,-0.615971 0.735919,-0.724983 0.0014,-0.286465 0.01129,-1.566739 0.09384,-1.966449 0.01658,-0.07726 0.05645,-0.180629 0.15029,-0.264593 0.02328,-0.02046 0.0508,-0.03987 0.08114,-0.05786 0.03175,-0.01799 0.06632,-0.03316 0.104779,-0.04692 0.08008,-0.02611 0.176395,-0.04269 0.293521,-0.04269 0.07444,0 0.144644,0.0056 0.202501,0.01376 0.0374,-0.154169 0.09102,-0.428639 0.118537,-0.783898 0.02893,-0.354201 0.03034,-0.789897 -0.03704,-1.266515 -0.0441,-0.301988 -0.182041,-0.763437 -0.370782,-1.291211 C 13.158879,9.796294 12.920394,9.200785 12.679085,8.6303241 12.196822,7.4879911 11.7008,6.444792 11.554745,6.2338238 Z M 4.664409,14.243208 c -0.016581,0 -0.023637,0.0042 -0.03034,0.0071 -0.098076,0.05645 -0.1820394,0.228607 -0.2617699,0.394066 -0.056799,0.115715 -0.1160678,0.237074 -0.1905064,0.348556 -0.074086,0.111481 -0.1636945,0.212379 -0.2794095,0.282584 -0.1725141,0.104779 -0.4371064,0.161225 -0.6907622,0.216261 -0.1816866,0.03987 -0.6060926,0.132296 -0.6254961,0.217671 -0.027518,0.115715 -0.00141,0.235663 0.03034,0.387363 0.038454,0.179217 0.085375,0.401122 0.04551,0.675239 -0.028929,0.170751 -0.080083,0.334798 -0.130885,0.492142 -0.070205,0.220493 -0.1488772,0.469916 -0.081494,0.546824 0.085728,0.07444 0.5940978,0.157344 0.966291,0.217671 0.4670935,0.07585 0.9507681,0.154522 1.2471115,0.278704 l 0.078319,0.03281 c 0.2660034,0.111835 0.6452523,0.270237 1.0213261,0.402533 0.3746627,0.130885 0.7468558,0.235664 0.9962781,0.235664 0.04551,0 0.083964,-0.0042 0.1143038,-0.01094 0.042688,-0.02893 0.1559331,-0.109012 0.2660034,-0.221904 0.1104234,-0.113288 0.2190826,-0.259343 0.253656,-0.420568 0.023284,-0.103367 0.016581,-0.210615 -0.00953,-0.318216 C 7.3568999,17.897756 7.3117428,17.791919 7.2549437,17.689963 7.142051,17.484639 6.989293,17.301189 6.8707557,17.175948 6.6100441,16.894775 6.1111995,16.06078 5.7474734,15.450454 5.6247025,15.246542 5.519924,15.070147 5.4634777,14.981949 5.3519961,14.808377 5.1974742,14.623515 5.0500082,14.481694 4.9014837,14.340931 4.7564871,14.244619 4.664409,14.244619 Z m 9.044117,0.355612 c -0.0067,0.0028 -0.01376,0.0042 -0.01905,0.0067 -0.03034,0.10619 -0.0014,0.461802 0.01764,0.701699 0.0099,0.128062 0.02081,0.260358 0.02787,0.381718 0.01376,0.267062 -0.02223,0.628318 -0.08008,1.005803 -0.05645,0.377838 -0.136531,0.771904 -0.210968,1.10529 -0.03422,0.162636 -0.04551,0.314336 -0.03563,0.450513 0.01094,0.136529 0.03987,0.257889 0.08255,0.362668 0.0882,0.209204 0.232841,0.348556 0.391596,0.398299 0.02893,0.0081 0.06033,0.01376 0.09631,0.01376 0.146055,0 0.340442,-0.07585 0.55141,-0.208146 0.212027,-0.132296 0.439576,-0.321039 0.653014,-0.545766 0.15311,-0.159813 0.398299,-0.326683 0.679473,-0.49073 0.282583,-0.165106 0.600799,-0.327742 0.899965,-0.479441 0.336209,-0.172162 0.684766,-0.349968 0.7839,-0.440987 0.02222,-0.02082 0.02505,-0.03175 0.02505,-0.03175 -0.0056,-0.09913 -0.401123,-0.305869 -0.549999,-0.384541 l -0.06068,-0.03175 c -0.209557,-0.110071 -0.36796,-0.315394 -0.471327,-0.549646 -0.103368,-0.232842 -0.151347,-0.496023 -0.13653,-0.722161 0.0056,-0.08255 -0.0053,-0.147466 -0.02187,-0.195798 -0.07726,0.127004 -0.187332,0.286818 -0.318216,0.417703 -0.111834,0.111481 -0.301988,0.226138 -0.526715,0.314335 -0.224374,0.0882 -0.483675,0.147114 -0.727452,0.147114 -0.18204,0 -0.348557,-0.0314 -0.4932,-0.0949 -0.122771,-0.05362 -0.218024,-0.130885 -0.293874,-0.223316 -0.07409,-0.09243 -0.128063,-0.198267 -0.167928,-0.307279 -0.07726,-0.216261 -0.09525,-0.446632 -0.09525,-0.59939 z" />
  </g>
</svg>
