<?xml version="1.0" encoding="UTF-8" standalone="no"?>
<!-- Created with Inkscape (http://www.inkscape.org/) -->

<svg
   xmlns:dc="http://purl.org/dc/elements/1.1/"
   xmlns:cc="http://creativecommons.org/ns#"
   xmlns:rdf="http://www.w3.org/1999/02/22-rdf-syntax-ns#"
   xmlns:svg="http://www.w3.org/2000/svg"
   xmlns="http://www.w3.org/2000/svg"
   xmlns:sodipodi="http://sodipodi.sourceforge.net/DTD/sodipodi-0.dtd"
   xmlns:inkscape="http://www.inkscape.org/namespaces/inkscape"
   width="210mm"
   height="297mm"
   viewBox="0 0 210 297"
   version="1.1"
   id="svg4664"
   inkscape:version="0.92.3 (2405546, 2018-03-11)"
   sodipodi:docname="Icon-LogRhythm-Dots-Port.svg">
  <defs
     id="defs4658" />
  <sodipodi:namedview
     id="base"
     pagecolor="#ffffff"
     bordercolor="#666666"
     borderopacity="1.0"
     inkscape:pageopacity="0.0"
     inkscape:pageshadow="2"
     inkscape:zoom="5.6"
     inkscape:cx="39.500863"
     inkscape:cy="1080.4976"
     inkscape:document-units="mm"
     inkscape:current-layer="layer1"
     showgrid="false"
     inkscape:window-width="2199"
     inkscape:window-height="1829"
     inkscape:window-x="803"
     inkscape:window-y="191"
     inkscape:window-maximized="0" />
  <metadata
     id="metadata4661">
    <rdf:RDF>
      <cc:Work
         rdf:about="">
        <dc:format>image/svg+xml</dc:format>
        <dc:type
           rdf:resource="http://purl.org/dc/dcmitype/StillImage" />
        <dc:title></dc:title>
      </cc:Work>
    </rdf:RDF>
  </metadata>
  <g
     inkscape:label="Layer 1"
     inkscape:groupmode="layer"
     id="layer1">
    <path
       inkscape:connector-curvature="0"
       style="fill:#2d7ac7;fill-opacity:1;fill-rule:nonzero;stroke:none;stroke-width:1.28969002"
       d="m 17.449064,0 c -0.06798,0 -0.1349,0.00510375 -0.201538,0.01033529 1.12722,0.50973931 2.09657,1.38195431 2.747119,2.43912761 C 19.939753,1.0884539 18.822441,0.00125754 17.449064,0 Z m -7.448641,0.00155029 c -1.4084146,0 -2.5497152,1.14376941 -2.5497152,2.55074871 0,1.132987 0.7394345,2.091624 1.7616496,2.4236247 C 9.337079,3.2638767 10.320408,1.6762379 11.705745,0.65887451 11.2537,0.25148273 10.657204,0.00155029 10.000423,0.00155029 Z M 2.5512654,7.4496744 c -1.4071247,0 -2.54971511,1.1440255 -2.54971511,2.5497152 0,1.4108484 1.14130051,2.5533324 2.54971511,2.5533324 1.4097042,0 2.5512654,-1.142741 2.5512654,-2.552299 0,-1.4069797 -1.1428508,-2.5507486 -2.5512654,-2.5507486 z m 7.1318643,0.021704 C 8.4253476,7.6275411 7.4496744,8.6985492 7.4496744,9.9993893 7.450865,11.30226 8.4249688,12.374253 9.6820962,12.531018 10.147507,11.528834 10.913116,10.654257 11.830286,9.9999061 10.913884,9.3461029 10.148657,8.4725064 9.6831297,7.4713784 Z m 9.9389283,1.1978597 c -0.399543,0.5041413 -0.875615,0.9543304 -1.403015,1.3306682 0.527797,0.3766207 1.004323,0.8270977 1.404048,1.3317017 0.237916,-0.387971 0.377172,-0.843133 0.376722,-1.3322185 0,-0.4875839 -0.139606,-0.9423553 -0.377755,-1.3301514 z M 2.552299,14.899349 C 1.1425947,14.899349 0,16.039501 0,17.44648 c 0,1.409559 1.1425947,2.553333 2.552299,2.553333 1.4071247,0 2.5497151,-1.141195 2.5497151,-2.553333 0,-1.406979 -1.1425904,-2.547131 -2.5497151,-2.547131 z m 6.6600584,0.125573 c -1.022204,0.331771 -1.7616496,1.289617 -1.7616496,2.421558 0,1.409559 1.1413006,2.550749 2.5497152,2.550749 0.655974,0 1.252926,-0.249556 1.705322,-0.656808 -1.384927,-1.017168 -2.3683553,-2.603947 -2.4933876,-4.315499 z"
       id="path4866" />
    <path
       inkscape:connector-curvature="0"
       style="opacity:1;fill:#ffffff;fill-opacity:1;stroke:none;stroke-width:2.06788588;stroke-linecap:round;stroke-linejoin:round;stroke-miterlimit:4;stroke-dasharray:2.06788592, 12.40731551;stroke-dashoffset:0;stroke-opacity:1;paint-order:normal"
       d="m 15.023744,2.086084 a 3.2586549,3.2586549 0 0 0 -3.258716,3.2587159 3.2586549,3.2586549 0 0 0 3.258716,3.258199 3.2586549,3.2586549 0 0 0 3.258716,-3.258199 3.2586549,3.2586549 0 0 0 -3.258716,-3.2587159 z m 0,9.310542 a 3.2586549,3.2586549 0 0 0 -3.258716,3.258199 3.2586549,3.2586549 0 0 0 3.258716,3.258716 3.2586549,3.2586549 0 0 0 3.258716,-3.258716 3.2586549,3.2586549 0 0 0 -3.258716,-3.258199 z"
       id="path5229" />
  </g>
</svg>
