<?xml version="1.0" encoding="UTF-8" standalone="no"?>
<!-- Created with Inkscape (http://www.inkscape.org/) -->

<svg
   xmlns:dc="http://purl.org/dc/elements/1.1/"
   xmlns:cc="http://creativecommons.org/ns#"
   xmlns:rdf="http://www.w3.org/1999/02/22-rdf-syntax-ns#"
   xmlns:svg="http://www.w3.org/2000/svg"
   xmlns="http://www.w3.org/2000/svg"
   xmlns:sodipodi="http://sodipodi.sourceforge.net/DTD/sodipodi-0.dtd"
   xmlns:inkscape="http://www.inkscape.org/namespaces/inkscape"
   width="210mm"
   height="297mm"
   viewBox="0 0 210 297"
   version="1.1"
   id="svg4553"
   inkscape:version="0.92.3 (2405546, 2018-03-11)"
   sodipodi:docname="Icon-Project.svg">
  <defs
     id="defs4547" />
  <sodipodi:namedview
     id="base"
     pagecolor="#ffffff"
     bordercolor="#666666"
     borderopacity="1.0"
     inkscape:pageopacity="0.0"
     inkscape:pageshadow="2"
     inkscape:zoom="1.979899"
     inkscape:cx="-11.16999"
     inkscape:cy="1132.5211"
     inkscape:document-units="mm"
     inkscape:current-layer="layer1"
     showgrid="false"
     inkscape:window-width="1920"
     inkscape:window-height="1017"
     inkscape:window-x="1912"
     inkscape:window-y="-8"
     inkscape:window-maximized="1" />
  <metadata
     id="metadata4550">
    <rdf:RDF>
      <cc:Work
         rdf:about="">
        <dc:format>image/svg+xml</dc:format>
        <dc:type
           rdf:resource="http://purl.org/dc/dcmitype/StillImage" />
        <dc:title></dc:title>
      </cc:Work>
    </rdf:RDF>
  </metadata>
  <g
     inkscape:label="Layer 1"
     inkscape:groupmode="layer"
     id="layer1">
    <style
       id="style5171">
.MsftOfcThm_Accent2_Fill {
 fill:#ED7D31; 
}
</style>
    <style
       id="style5201">
.MsftOfcThm_Accent2_Fill {
 fill:#ED7D31; 
}
</style>
    <style
       id="style5223">
.MsftOfcThm_Accent2_Fill {
 fill:#ED7D31; 
}
</style>
    <path
       inkscape:connector-curvature="0"
       style="fill:#2d7ac7;fill-opacity:1;stroke:none;stroke-width:0.27661017;stroke-dasharray:none;stroke-dashoffset:1"
       d="M 1.2116784,1.5383514 V 3.1673345 H 0.84525314 C 0.39432292,3.1945261 0.08417829,3.5476835 0.08417829,3.9820644 0.05594938,4.4164557 0.39432292,4.7691769 0.84525314,4.7963175 H 1.2116784 V 5.882465 H 0.84525314 C 0.36614978,5.882465 -3.8811113e-7,6.2351862 -3.8811113e-7,6.6967182 -3.8811113e-7,7.1582499 0.36614978,7.5114481 0.84525314,7.5114481 H 1.2116784 V 8.5971189 H 0.84525314 C 0.36614978,8.5971189 -3.8811113e-7,8.9503171 -3.8811113e-7,9.4118488 -3.8811113e-7,9.8733805 0.36614978,10.226102 0.84525314,10.226102 H 1.2116784 v 1.086147 H 0.84525314 c -0.47910336,0 -0.84525352811113,0.352722 -0.84525352811113,0.814254 0,0.461541 0.36615016811113,0.814729 0.84525352811113,0.814729 H 1.2116784 v 1.085671 H 0.84525314 c -0.47910336,0 -0.84525352811113,0.353198 -0.84525352811113,0.81473 0,0.461532 0.36615016811113,0.814253 0.84525352811113,0.814253 H 1.2116784 v 1.086148 H 0.84525314 c -0.47910336,0 -0.84525352811113,0.352721 -0.84525352811113,0.814253 0,0.461532 0.36615016811113,0.81473 0.84525352811113,0.81473 H 1.2116784 V 20 H 18.68471 V 6.1452966 a 1.3370708,1.2880323 0 0 1 -0.119336,0.07489 1.3370708,1.2880323 0 0 1 -0.264916,0.3672962 L 16.993707,7.8463079 V 18.371017 H 2.9026806 V 3.1673345 h 8.6822944 l 1.578104,-1.5259493 a 1.3370708,1.2880323 0 0 1 0.123297,-0.1030338 z m 3.9455072,3.2579661 c -0.1409128,0 -0.2819225,0.054544 -0.3946498,0.1631366 -0.225465,0.2171958 -0.225465,0.5426795 0,0.7598741 L 6.0588884,6.9686128 4.7625358,8.2174202 c -0.225465,0.2171951 -0.225465,0.5426792 0,0.7598741 0.1127268,0.1085933 0.2537382,0.1631368 0.3946498,0.1631368 0.1409111,0 0.2819228,-0.054519 0.3946496,-0.1631368 l 1.2963526,-1.2488075 0.0099,0.00954 0.787814,-0.7613052 -0.00842,-0.00811 1.2963526,-1.2492846 c 0.225465,-0.2171946 0.225465,-0.5426783 0,-0.7598741 -0.2254642,-0.2171853 -0.5638451,-0.2171853 -0.7892994,0 L 6.8481878,6.2082618 5.5518352,4.9594541 C 5.4391031,4.8508615 5.298098,4.7963175 5.1571856,4.7963175 Z m 9.5820164,7.6020795 c -0.140922,0 -0.281922,0.05404 -0.394649,0.16266 l -1.296353,1.248808 -1.122548,-1.081378 -0.218865,0.211315 a 1.3370708,1.2880323 0 0 1 -0.526365,0.31244 l -0.217379,0.06917 1.296353,1.248808 -1.296353,1.248807 c -0.225465,0.217186 -0.225465,0.543155 0,0.760351 0.225465,0.217195 0.563351,0.217195 0.788804,0 l 1.296353,-1.249284 1.296353,1.249284 c 0.225465,0.217195 0.563846,0.217195 0.789299,0 0.225465,-0.217196 0.225465,-0.543165 0,-0.760351 L 13.8375,14.570216 15.133852,13.321408 c 0.225465,-0.217196 0.225465,-0.543165 0,-0.760351 -0.112727,-0.108603 -0.253738,-0.16266 -0.39465,-0.16266 z"
       id="path5079" />
    <path
       inkscape:connector-curvature="0"
       style="fill:#ffffff;fill-opacity:1;stroke:none;stroke-width:0.27661014;stroke-dasharray:none;stroke-dashoffset:1"
       d="M 17.176212,0 C 16.916347,0 16.656597,0.09762256 16.453776,0.29300537 L 14.679207,2.0024617 17.898649,5.104598 19.673734,3.3946248 C 20.104731,3.028284 20.104702,2.4175143 19.699055,2.0267496 L 17.898649,0.29300537 C 17.695828,0.0976233 17.436076,0 17.176212,0 Z M 14.11025,2.5507487 7.5163369,8.9271035 5.9190185,13.567647 10.761617,12.02924 17.355013,5.676656 Z M 9.3260457,9.070764 c 0.3264153,0.00305 0.649778,0.1252572 0.9033043,0.3694867 0.507055,0.4884573 0.507054,1.2458043 0,1.7342613 L 8.0744424,11.858191 7.6941039,11.491805 8.4036214,9.415446 C 8.6698253,9.1834299 8.9996303,9.0677113 9.3260457,9.070764 Z m -0.329179,4.875155 -1.0660848,0.33848 c 0.026265,0.09161 0.044958,0.186401 0.044958,0.285771 0,0.597285 -0.5075542,1.085722 -1.1275798,1.085722 -0.5207521,0 -0.9577893,-0.346014 -1.0857217,-0.810287 A 1.3370708,1.2880323 0 0 1 4.6751668,14.038936 c -0.068832,0.257486 -0.089665,0.528744 -0.053227,0.802535 0.1409224,1.085957 1.0989175,1.900659 2.2262206,1.900659 1.1273131,0 2.0853093,-0.814702 2.2262208,-1.900659 0.040299,-0.310572 0.00994,-0.613545 -0.077514,-0.895552 z"
       id="path5081" />
  </g>
</svg>
