<?xml version="1.0" encoding="UTF-8" standalone="no"?>
<!-- Created with Inkscape (http://www.inkscape.org/) -->

<svg
   xmlns:dc="http://purl.org/dc/elements/1.1/"
   xmlns:cc="http://creativecommons.org/ns#"
   xmlns:rdf="http://www.w3.org/1999/02/22-rdf-syntax-ns#"
   xmlns:svg="http://www.w3.org/2000/svg"
   xmlns="http://www.w3.org/2000/svg"
   xmlns:sodipodi="http://sodipodi.sourceforge.net/DTD/sodipodi-0.dtd"
   xmlns:inkscape="http://www.inkscape.org/namespaces/inkscape"
   width="210mm"
   height="297mm"
   viewBox="0 0 210 297"
   version="1.1"
   id="svg5333"
   inkscape:version="0.92.3 (2405546, 2018-03-11)"
   sodipodi:docname="Icon-InternetConnectivity.svg">
  <defs
     id="defs5327" />
  <sodipodi:namedview
     id="base"
     pagecolor="#ffffff"
     bordercolor="#666666"
     borderopacity="1.0"
     inkscape:pageopacity="0.0"
     inkscape:pageshadow="2"
     inkscape:zoom="1.4"
     inkscape:cx="151.98093"
     inkscape:cy="932.62724"
     inkscape:document-units="mm"
     inkscape:current-layer="layer1"
     showgrid="false"
     inkscape:window-width="1920"
     inkscape:window-height="1017"
     inkscape:window-x="1912"
     inkscape:window-y="-8"
     inkscape:window-maximized="1" />
  <metadata
     id="metadata5330">
    <rdf:RDF>
      <cc:Work
         rdf:about="">
        <dc:format>image/svg+xml</dc:format>
        <dc:type
           rdf:resource="http://purl.org/dc/dcmitype/StillImage" />
        <dc:title></dc:title>
      </cc:Work>
    </rdf:RDF>
  </metadata>
  <g
     inkscape:label="Layer 1"
     inkscape:groupmode="layer"
     id="layer1">
    <path
       inkscape:connector-curvature="0"
       style="fill:#2d7ac7;fill-opacity:1;stroke-width:0.31735948"
       d="M 19.999813,0 C 8.959217,0.01224269 0.01223847,8.9538182 0,19.98741 H 1.9047933 C 1.915304,10.004387 10.010454,1.9145515 19.999813,1.9037597 Z m 0,4.9779906 C 11.706585,4.9867192 4.9838903,11.699466 4.9681722,19.98741 H 6.8729653 C 6.888708,12.750767 12.758553,6.8896271 19.999813,6.8812335 Z m 0,4.9521525 C 14.444798,9.9371218 9.9435435,14.435918 9.9363444,19.98741 h 1.9047926 c 0.0052,-4.500923 3.654897,-8.148707 8.158676,-8.153507 z"
       id="path5878" />
    <path
       style="fill:#ffffff;fill-opacity:1;stroke-width:0.31735948"
       d="m 20.000003,17.515862 a 2.4857135,2.4841363 0 0 1 -2.485713,2.484136 2.4857135,2.4841363 0 0 1 -2.485714,-2.484136 2.4857135,2.4841363 0 0 1 2.485714,-2.484137 2.4857135,2.4841363 0 0 1 2.485713,2.484137 z"
       id="circle5884" />
  </g>
</svg>
